<?xml version="1.0" encoding="UTF-8" standalone="no"?>
<svg
   width="375"
   height="390"
   viewBox="0 0 375 390"
   fill="none"
   version="1.1"
   id="svg500"
   sodipodi:docname="background-about-me- mobile.svg"
   inkscape:version="1.2.1 (9c6d41e410, 2022-07-14, custom)"
   xmlns:inkscape="http://www.inkscape.org/namespaces/inkscape"
   xmlns:sodipodi="http://sodipodi.sourceforge.net/DTD/sodipodi-0.dtd"
   xmlns="http://www.w3.org/2000/svg"
   xmlns:svg="http://www.w3.org/2000/svg">
  <sodipodi:namedview
     id="namedview502"
     pagecolor="#ffffff"
     bordercolor="#cccccc"
     borderopacity="1"
     inkscape:showpageshadow="0"
     inkscape:pageopacity="1"
     inkscape:pagecheckerboard="0"
     inkscape:deskcolor="#d1d1d1"
     showgrid="false"
     inkscape:zoom="0.60512821"
     inkscape:cx="186.73729"
     inkscape:cy="195"
     inkscape:window-width="954"
     inkscape:window-height="1016"
     inkscape:window-x="960"
     inkscape:window-y="28"
     inkscape:window-maximized="1"
     inkscape:current-layer="svg500" />
  <g
     clip-path="url(#clip0_48_989)"
     id="g493">
    <path
       d="M-35.2046 382.247L65.5333 380.945L26.4966 370.205L30.8965 360.898L55.8637 357.472L49.4684 355.989L32.2779 355.222L-35.2046 382.247Z"
       fill="#172B4D"
       id="path452" />
    <path
       d="M20.5105 334.716L17.4407 334.767L-8.08918 325.255L20.7663 341.619L25.4732 337.733L20.5105 334.716Z"
       fill="#36B37E"
       id="path454" />
    <path
       d="M20.5107 334.715L70.1892 325.612L45.3755 349.699L20.5107 334.715Z"
       fill="#172B4D"
       id="path456" />
    <path
       d="M-8.08918 325.255L41.4869 353.432L30.3336 355.478L3.01301 357.472L-8.08918 325.255Z"
       fill="white"
       stroke="#36B37E"
       stroke-width="0.633632"
       stroke-miterlimit="10"
       stroke-linejoin="round"
       id="path458" />
    <path
       d="M41.4871 353.432L70.189 325.612L49.4684 355.989L41.4871 353.432Z"
       fill="white"
       stroke="#36B37E"
       stroke-width="0.633632"
       stroke-miterlimit="10"
       stroke-linejoin="round"
       id="path460" />
    <path
       d="M20.7665 341.619L33.6083 331.033L34.9385 332.107L30.8967 347.398L20.7665 341.619Z"
       fill="white"
       stroke="#36B37E"
       stroke-width="0.633632"
       stroke-miterlimit="10"
       stroke-linejoin="round"
       id="path462" />
    <path
       d="M34.9383 332.107L46.5521 348.574L41.4871 353.432L30.8965 347.398L34.9383 332.107Z"
       fill="white"
       stroke="#36B37E"
       stroke-width="0.633632"
       stroke-miterlimit="10"
       stroke-linejoin="round"
       id="path464" />
    <path
       d="M49.4685 355.989L30.3339 355.477L41.4872 353.432L49.4685 355.989Z"
       fill="white"
       stroke="#36B37E"
       stroke-width="0.633632"
       stroke-miterlimit="10"
       stroke-linejoin="round"
       id="path466" />
    <path
       d="M-16.6331 348.113L47.6265 325.612L19.6408 362.688L-16.6331 348.113Z"
       fill="#C5E9DA"
       stroke="#36B37E"
       stroke-width="0.633632"
       stroke-miterlimit="10"
       id="path468" />
    <path
       d="M-56.7443 341.567L15.3431 368.415L0.864263 373.529L-35.1539 381.865L-56.7443 341.567Z"
       fill="white"
       stroke="#36B37E"
       stroke-width="0.633632"
       stroke-miterlimit="10"
       stroke-linejoin="round"
       id="path470" />
    <path
       d="M15.3431 368.416L47.6264 325.612L26.4964 370.205L15.3431 368.416Z"
       fill="white"
       stroke="#36B37E"
       stroke-width="0.633632"
       stroke-miterlimit="10"
       stroke-linejoin="round"
       id="path472" />
    <path
       d="M-14.7914 357.217L0.0967395 340.494L2.09206 341.568L-0.0567445 362.688L-14.7914 357.217Z"
       fill="#36B37E"
       id="path474" />
    <path
       d="M2.09206 341.567L20.9709 360.949L15.343 368.415L-0.0567474 362.688L2.09206 341.567Z"
       fill="white"
       stroke="#36B37E"
       stroke-width="0.633632"
       stroke-miterlimit="10"
       stroke-linejoin="round"
       id="path476" />
    <path
       d="M26.4964 370.205L0.864197 373.529L15.3431 368.415L26.4964 370.205Z"
       fill="white"
       stroke="#36B37E"
       stroke-width="0.633632"
       stroke-miterlimit="10"
       stroke-linejoin="round"
       id="path478" />
    <mask
       id="mask0_48_989"
       style="mask-type:alpha"
       maskUnits="userSpaceOnUse"
       x="-58"
       y="341"
       width="74"
       height="41">
      <path
         d="M-56.8336 341.759L15.2077 368.309L0.941377 373.223L-35.0768 381.558L-56.8336 341.759Z"
         fill="white"
         stroke="#36B37E"
         stroke-width="0.633632"
         stroke-miterlimit="10"
         stroke-linejoin="round"
         id="path480" />
    </mask>
    <g
       mask="url(#mask0_48_989)"
       id="g491">
      <path
         d="M-13.4611 369.489L-21.2889 369.745L-24.9214 363.455L-32.4423 363.762L-28.9121 370.001L-36.3306 370.205L-32.9027 376.496L-25.3307 376.342L-17.6052 376.138L-13.8192 382.734L-5.73563 382.632L-1.74498 389.383H6.64561L2.55264 382.53L-1.48917 375.831L-9.67511 375.984L-13.4611 369.489Z"
         fill="#C5E9DA"
         id="path483" />
      <path
         d="M2.75744 368.927L-5.47966 369.234L-1.48902 375.831L6.85041 375.626L15.4457 375.421L11.1992 368.671L7.05506 362.074L-1.23321 362.432L2.75744 368.927Z"
         fill="#36B37E"
         id="path485" />
      <path
         d="M-0.977466 349.238L-9.00992 349.75L-5.17276 355.989L3.01318 355.58L-0.977466 349.238Z"
         fill="#36B37E"
         id="path487" />
      <path
         d="M15.5991 361.665L11.3526 355.119L3.01319 355.579L7.05499 362.074L15.5991 361.665Z"
         fill="#36B37E"
         id="path489" />
    </g>
  </g>
  <defs
     id="defs498">
    <clipPath
       id="clip0_48_989">
      <rect
         width="127.445"
         height="64.3839"
         fill="white"
         transform="translate(-57 325)"
         id="rect495" />
    </clipPath>
    <mask
       id="mask0_73_259"
       maskUnits="userSpaceOnUse"
       x="-1"
       y="28"
       width="68"
       height="56">
      <path
         d="m 66.1968,66.8676 v -2.3551 c 0,0 -5.1511,-10.2056 -5.887,-10.3037 C 59.5739,54.1107 -0.277245,29.1855 -0.277245,29.1855 l 22.812145,44.404 9.0267,9.6168 z"
         fill="#ffffff"
         stroke="#36b37e"
         stroke-width="0.598795"
         stroke-miterlimit="10"
         id="path6" />
    </mask>
  </defs>
  <path
     d="m 371.62621,80.131872 44.0052,14.9649 h -63.1379 l -8.0947,-0.883 -3.9246,-2.453 13.3929,-11.6289 z"
     fill="#172b4d"
     id="path2" />
  <path
     d="m 365.83711,52.655773 v -2.3551 c 0,0 -5.1511,-10.2056 -5.887,-10.3037 -0.7358,-0.0981 -60.58699,-25.0233 -60.58699,-25.0233 l 22.81209,44.403999 9.0268,9.6168 z"
     fill="#ffffff"
     stroke="#36b37e"
     stroke-width="0.598795"
     stroke-miterlimit="10"
     id="path4" />
  <g
     mask="url(#mask0_73_259)"
     id="g33"
     transform="translate(299.82341,-13.945227)">
    <path
       d="m 41.043,55.0712 -7.5059,0.2453 -3.4341,-6.0841 -7.2116,0.3435 3.385,5.9369 -7.1625,0.2453 3.336,6.035 7.2116,-0.1472 7.4568,-0.1963 3.6303,6.2804 7.7022,-0.0491 3.8265,6.4766 h 8.0946 l -3.9737,-6.5747 -3.8756,-6.4766 -7.8002,0.1963 z"
       fill="#c5e9da"
       id="path9" />
    <path
       d="m 37.4616,48.9371 -3.5322,-5.9859 -7.2606,0.3925 3.434,5.8878 z"
       fill="#36b37e"
       id="path11" />
    <path
       d="m 48.7453,54.7769 -3.7285,-6.1822 -7.5549,0.3435 3.5812,6.1331 z"
       fill="#36b37e"
       id="path13" />
    <path
       d="m 52.7678,48.2503 -3.7775,-6.1331 -7.6041,0.3925 3.6303,6.0841 z"
       fill="#36b37e"
       id="path15" />
    <path
       d="m 56.6434,54.531 -7.8983,0.2454 3.7774,6.3294 8.0456,-0.1472 8.2418,-0.1963 -4.0718,-6.4766 -3.9738,-6.3785 -7.9965,0.3435 z"
       fill="#36b37e"
       id="path17" />
    <path
       d="m 15.876,49.8703 7.0153,-0.2944 -3.2869,-5.8878 7.0644,-0.3435 -3.3359,-5.8387 -6.9663,0.4415 -6.81912,0.4416 3.13972,5.6916 -6.77004,0.3434 -6.573814,0.3435 2.992554,5.6916 6.67193,-0.2944 3.13977,5.8387 6.9662,-0.2453 z"
       fill="#172b4d"
       id="path19" />
    <path
       d="M 5.37747,56.1992 8.46814,62.087 15.3854,61.9398 12.1475,56.0029 Z"
       fill="#36b37e"
       id="path21" />
    <path
       d="M -0.0679493,33.2856 2.87555,38.8299 9.54749,38.3883 6.45681,32.7949 Z"
       fill="#36b37e"
       id="path23" />
    <path
       d="m 33.9295,42.9516 7.4568,-0.4416 -3.5812,-5.9369 -3.4832,-5.8387 -7.2115,0.5397 -7.0644,0.5397 3.2869,5.6916 7.1625,-0.4416 z"
       fill="#36b37e"
       id="path25" />
    <path
       d="m 53.0132,35.5918 -7.7021,0.4906 3.6793,6.0351 7.8494,-0.3926 z"
       fill="#36b37e"
       id="path27" />
    <path
       d="m 68.9081,47.5635 -4.0228,-6.2803 -8.0456,0.4416 3.9247,6.1822 z"
       fill="#36b37e"
       id="path29" />
    <path
       d="m 15.3855,61.9392 3.2869,6.0841 7.1625,-0.0982 -3.385,-6.1331 z"
       fill="#36b37e"
       id="path31" />
  </g>
  <path
     d="m 352.49341,51.085073 -27.4726,5.8878 -0.6868,1.8154 6.1323,8.390099 z"
     fill="#172b4d"
     id="path35" />
  <path
     d="m 375.94321,58.592473 -5.5436,-4.7103 -8.5852,-6.5256 -21.7328,8.7336 -0.9812,5.249899 5.2983,7.507 z"
     fill="#ffffff"
     stroke="#36b37e"
     stroke-width="0.598795"
     stroke-miterlimit="10"
     id="path37" />
  <path
     d="m 364.80711,62.173672 16.0421,-5.200899 -9.223,23.158699 -13.2458,0.8341 z"
     fill="#ffffff"
     stroke="#36b37e"
     stroke-width="0.598795"
     stroke-miterlimit="10"
     id="path39" />
  <path
     d="m 347.58751,67.718272 -3.1887,1.1285 -1.4718,20.951 1.4718,4.416 13.9816,-13.2479 6.4266,-18.792 z"
     fill="#ffffff"
     stroke="#36b37e"
     stroke-width="0.598795"
     stroke-miterlimit="10"
     id="path41" />
  <path
     d="m 390.51361,53.881873 27.7178,14.964899 -70.6438,-1.1285 z"
     fill="#c5e9da"
     stroke="#36b37e"
     stroke-width="0.598795"
     stroke-miterlimit="10"
     id="path43" />
  <path
     d="m 344.39871,68.846972 v -3.4346 l -22.2234,-30.567599 -2.9435,4.6612 21.2423,52.254799 2.4529,-1.963 z"
     fill="#ffffff"
     stroke="#36b37e"
     stroke-width="0.598795"
     stroke-miterlimit="10"
     id="path45" />
  <path
     d="m 322.17531,34.844573 -2.9435,4.6611 -9.90981,9.2243 7.84931,-15.8481 z"
     fill="#ffffff"
     stroke="#36b37e"
     stroke-width="0.598795"
     stroke-miterlimit="10"
     id="path47" />
  <path
     d="m 375.15841,71.202472 -27.5708,-3.4836 28.7972,0.4906 z"
     fill="#172b4d"
     id="path49" />
  <path
     d="m 350.58011,66.785772 -9.6155,-7.997599 -0.3924,1.373799 3.8265,5.25 v 3.4346 z"
     fill="#172b4d"
     id="path51" />
  <path
     d="m 338.41381,86.755772 -2.2567,2.797 -2.9435,-2.797 -15.3553,-45.925099 1.3737,-1.3247 z"
     fill="#c5e9da"
     stroke="#36b37e"
     stroke-width="0.598795"
     stroke-miterlimit="10"
     id="path53" />
</svg>
