<?xml version="1.0" encoding="UTF-8" standalone="no"?>
<svg
   width="1000"
   height="400"
   viewBox="0 0 1000 400"
   fill="none"
   version="1.1"
   id="svg813"
   sodipodi:docname="contact-background-desktop.svg"
   inkscape:version="1.2.1 (9c6d41e410, 2022-07-14, custom)"
   xmlns:inkscape="http://www.inkscape.org/namespaces/inkscape"
   xmlns:sodipodi="http://sodipodi.sourceforge.net/DTD/sodipodi-0.dtd"
   xmlns="http://www.w3.org/2000/svg"
   xmlns:svg="http://www.w3.org/2000/svg">
  <sodipodi:namedview
     id="namedview815"
     pagecolor="#ffffff"
     bordercolor="#cccccc"
     borderopacity="1"
     inkscape:showpageshadow="0"
     inkscape:pageopacity="1"
     inkscape:pagecheckerboard="0"
     inkscape:deskcolor="#d1d1d1"
     showgrid="false"
     inkscape:zoom="0.67045455"
     inkscape:cx="766.64406"
     inkscape:cy="176"
     inkscape:window-width="1914"
     inkscape:window-height="1016"
     inkscape:window-x="0"
     inkscape:window-y="28"
     inkscape:window-maximized="1"
     inkscape:current-layer="svg813" />
  <g
     clip-path="url(#clip0_34_2644)"
     id="g806"
     transform="matrix(0.74497159,0,0,0.74497159,20.756526,66.165086)">
    <path
       d="m 118.599,241.792 -97.6381,4.286 c -0.3609,0 -0.9027,0.182 -1.2645,0.543 l -32.5601,32.527 c -0.3618,0.362 -0.5436,0.903 -0.5453,1.625 l 1.3694,31.037 c -0.0026,1.083 0.8975,1.984 2.16116,1.802 l 83.75404,-9.139 c 0.5419,-0.182 1.0836,-0.363 1.4454,-0.724 l 18.1115,-27.455 0.1808,-0.18 26.7817,-31.076 c 0.906,-1.265 -0.172,-3.429 -1.796,-3.246 z"
       fill="#172b4d"
       id="path775" />
    <path
       d="M 79.1709,70.2809 -30.771,78.9373 -59.2615,122.881 -31.8518,238.44 0.593824,263.636 64.3491,258.633 75.942,225.449 108.733,189.451 Z"
       fill="#ffffff"
       stroke="#36b37e"
       stroke-width="1.55764"
       stroke-miterlimit="10"
       stroke-linejoin="round"
       id="path777" />
    <path
       d="M 75.942,225.449 17.8668,122.162 79.1709,70.2811 108.733,189.451 Z"
       fill="#c5e9da"
       stroke="#36b37e"
       stroke-width="1.55764"
       stroke-miterlimit="10"
       stroke-linejoin="round"
       id="path779" />
    <path
       d="m 64.3493,258.634 -14.7546,-80.315 26.3475,47.13 z"
       fill="#ffffff"
       stroke="#36b37e"
       stroke-width="1.55764"
       stroke-miterlimit="10"
       stroke-linejoin="round"
       id="path781" />
    <path
       d="m -59.2616,122.882 77.1283,-0.72"
       stroke="#36b37e"
       stroke-width="1.55764"
       stroke-miterlimit="10"
       stroke-linejoin="round"
       id="path783" />
    <path
       d="m 32.238,109.966 -21.1917,1.727 -6.21489,10.529 23.07399,17.636 z"
       fill="#c5e9da"
       stroke="#36b37e"
       stroke-width="1.55764"
       stroke-miterlimit="10"
       stroke-linejoin="round"
       id="path785" />
    <mask
       id="mask0_34_2644"
       maskUnits="userSpaceOnUse"
       x="-70"
       y="56"
       width="147"
       height="80">
      <path
         d="m -13.2932,99.6432 14.42629,4.3108 9.58801,-9.9383 13.7045,4.312 -9.5872,9.5773 13.5244,4.132 -9.4071,9.758 -13.70532,-3.951 -14.06623,-3.951 -10.12985,10.12 -14.788,-3.95 -10.4916,10.481 -15.5099,-3.948 11.0334,-10.663 10.4916,-10.481 14.7872,4.311 z"
         fill="#c5e9da"
         id="path787" />
      <path
         d="m -3.16405,89.8843 9.76805,-9.7582 13.7044,4.312 -9.5871,9.5775 z"
         fill="#36b37e"
         id="path789" />
      <path
         d="m 37.589,102.46 -13.1635,-4.1326 9.2262,-9.577 -13.3435,-4.3125 9.4063,-9.3968 12.9826,4.313 12.6217,4.3135 -8.6844,9.3958 12.6225,3.9525 12.4417,4.1331 -8.5035,9.215 -12.6226,-3.952 -9.2262,9.577 -12.9835,-3.952 z"
         fill="#5e78a5"
         id="path791" />
      <path
         d="m 54.3299,119.94 -8.8653,9.577 -13.1644,-3.771 9.0462,-9.758 z"
         fill="#36b37e"
         id="path793" />
      <path
         d="m 76.4443,78.7661 -8.5035,9.2151 -12.6217,-4.3135 8.8644,-9.2156 z"
         fill="#36b37e"
         id="path795" />
      <path
         d="M 6.60412,80.1259 -7.28035,75.6337 2.3068,66.0562 12.074,56.6589 25.5975,61.1516 38.7593,66.0057 29.7148,75.041 16.1913,70.5484 Z"
         fill="#36b37e"
         id="path797" />
      <path
         d="m 32.3,125.746 -9.2272,9.938 -13.88615,-3.771 9.76895,-10.119 z"
         fill="#36b37e"
         id="path799" />
    </mask>
    <g
       mask="url(#mask0_34_2644)"
       id="g804">
      <path
         d="M -31.2904,79.4566 78.2671,71.1842 28.5314,111.951 10.1008,113.395 3.69782,123.327 -59.5463,123.166 Z"
         fill="#36b37e"
         stroke="#36b37e"
         stroke-width="1.55764"
         stroke-miterlimit="10"
         stroke-linejoin="round"
         id="path802" />
    </g>
  </g>
  <defs
     id="defs811">
    <clipPath
       id="clip0_34_2644">
      <rect
         width="236"
         height="261.09201"
         fill="#ffffff"
         transform="matrix(-0.707463,0.706751,0.706751,0.707463,8.96094,0)"
         id="rect808"
         x="0"
         y="0" />
    </clipPath>
    <clipPath
       id="clip0_34_2668">
      <rect
         width="105.273"
         height="67.184898"
         fill="#ffffff"
         transform="rotate(-25.4057,100.18322,22.5825)"
         id="rect977"
         x="0"
         y="0" />
    </clipPath>
    <mask
       id="mask0_34_2668"
       maskUnits="userSpaceOnUse"
       x="16"
       y="51"
       width="80"
       height="39">
      <path
         d="m 17.1456,75.9294 32.0718,-23.9191 11.3067,1.3256 34.0492,8.4398 -4.1345,1.9636 -53.4524,25.3876 z"
         fill="#ffffff"
         stroke="#36b37e"
         stroke-width="1.63467"
         stroke-miterlimit="10"
         stroke-linejoin="round"
         id="path952" />
    </mask>
    <clipPath
       id="clip0_34_2614">
      <rect
         width="316.16501"
         height="450.96301"
         fill="#ffffff"
         transform="matrix(-0.987301,0.15886,0.15886,0.987301,312.149,0)"
         id="rect1479"
         x="0"
         y="0" />
    </clipPath>
    <mask
       id="mask0_34_2614"
       maskUnits="userSpaceOnUse"
       x="61"
       y="8"
       width="257"
       height="482">
      <path
         d="M 263.619,8.95481 317.682,41.5089 167.467,465.605 100.284,489.708 70.2652,455.577 61.9375,428.04 160.525,185.972 l 23.937,-22.186 -9.656,-22.97 44.357,-113.249 z"
         fill="#ffffff"
         id="path1432" />
    </mask>
  </defs>
  <path
     d="m 234.84262,365.1588 2.97896,-6.19708 c 0.0755,-0.15703 0.20375,-0.2825 0.36244,-0.35453 l 45.0719,-20.44794 c 0.21928,-0.0995 0.47293,-0.087 0.68085,0.0353 l 22.5174,13.13078 c 0.57258,0.33373 0.45451,1.19314 -0.18643,1.36018 l -57.01563,14.85829 c -0.0855,0.0225 -0.17321,0.0295 -0.26053,0.021 l -13.55309,-1.34449 c -0.51298,-0.0508 -0.81945,-0.59608 -0.59587,-1.06072 z"
     fill="#172b4d"
     id="path934"
     style="stroke-width:0.742638" />
  <g
     clip-path="url(#clip0_34_2668)"
     id="g975"
     transform="matrix(0.74264134,0,0,0.74264134,212.16919,295.03618)">
    <path
       d="M 34.1646,29.8427 17.1455,75.9292 36.9864,89.1267 94.5732,61.7755 112.237,38.0035 69.7314,24.7129 Z"
       fill="#ffffff"
       stroke="#36b37e"
       stroke-width="1.63467"
       stroke-miterlimit="10"
       stroke-linejoin="round"
       id="path936" />
    <path
       d="m 54.1897,48.382 1.8936,3.9868 38.4899,9.4071 2.6321,-3.6027 L 112.237,38.0039 69.7314,24.7133 Z"
       fill="#c5e9da"
       stroke="#36b37e"
       stroke-width="1.63467"
       stroke-miterlimit="10"
       stroke-linejoin="round"
       id="path938" />
    <path
       d="M 69.7315,24.7137 56.342,46.8173 17.1456,75.93"
       fill="#ffffff"
       id="path940" />
    <path
       d="M 69.7315,24.7137 56.342,46.8173 17.1456,75.93"
       stroke="#36b37e"
       stroke-width="1.63467"
       stroke-miterlimit="10"
       stroke-linejoin="round"
       id="path942" />
    <path
       d="M 49.2173,52.0107 51.0412,41.3721 61.1853,38.7257 56.0833,52.369 Z"
       fill="#172b4d"
       stroke="#36b37e"
       stroke-width="1.63467"
       stroke-miterlimit="10"
       stroke-linejoin="round"
       id="path944" />
    <path
       d="M 94.5729,61.7762 56.083,52.3691"
       stroke="#36b37e"
       stroke-width="1.63467"
       stroke-miterlimit="10"
       stroke-linejoin="round"
       id="path946" />
    <path
       d="m 81.2584,58.5089 6.689,-5.3486 -0.7238,6.8586 -5.1201,3.6986 z"
       fill="#ffffff"
       stroke="#36b37e"
       stroke-width="1.63467"
       stroke-miterlimit="10"
       stroke-linejoin="round"
       id="path948" />
    <path
       d="M 87.9471,53.1601 86.2979,29.8747"
       stroke="#36b37e"
       stroke-width="1.63467"
       stroke-miterlimit="10"
       stroke-linejoin="round"
       id="path950" />
    <mask
       id="mask1306"
       maskUnits="userSpaceOnUse"
       x="16"
       y="51"
       width="80"
       height="39">
      <path
         d="m 17.1456,75.9294 32.0718,-23.9191 11.3067,1.3256 34.0492,8.4398 -4.1345,1.9636 -53.4524,25.3876 z"
         fill="#ffffff"
         stroke="#36b37e"
         stroke-width="1.63467"
         stroke-miterlimit="10"
         stroke-linejoin="round"
         id="path1304" />
    </mask>
    <g
       mask="url(#mask0_34_2668)"
       id="g973">
      <path
         d="m 50.141,63.535 4.3934,-9.3258 9.7875,-0.3504 4.1118,-8.9659 -9.3306,0.3596 4.2965,-9.0536 -9.6029,0.2627 -4.2965,9.0536 -4.6656,9.2289 -10.0597,0.2534 -4.7626,9.5012 -10.4289,0.4288 -5.2286,9.9488 10.6135,-0.5165 10.3412,-0.6133 4.8595,-9.7735 z"
         fill="#36b37e"
         id="path955" />
      <path
         d="m 59.9285,63.1841 9.6998,-0.535 4.0242,-9.1505 -9.3306,0.3596 z"
         fill="#36b37e"
         id="path957" />
      <path
         d="m 45.4659,73.2202 10.0689,-0.7103 4.3934,-9.3258 -9.7875,0.3503 z"
         fill="#c5e9da"
         id="path959" />
      <path
         d="m 50.8599,82.1958 9.8844,-0.6226 4.4903,-9.5981 -9.6998,0.5349 z"
         fill="#36b37e"
         id="path961" />
      <path
         d="M 40.7911,82.9066 45.466,73.2208 35.3094,73.7465 30.4499,83.52 25.3966,93.8379 35.8347,92.9523 46.176,92.3389 50.8601,82.1963 Z"
         fill="#36b37e"
         id="path963" />
      <path
         d="m 72.6333,36.1115 -4.1996,8.7813 9.3307,-0.3596 -4.1119,8.9659 9.3306,-0.3596 3.9273,-8.8782 3.8304,-8.606 -8.9615,0.1842 3.9181,-8.4214 3.7335,-8.3337 -8.7769,0.0966 -3.9181,8.4214 -9.2337,0.0873 -4.1026,8.5091 z"
         fill="#36b37e"
         id="path965" />
      <path
         d="m 69.6283,62.6494 -4.3933,9.3259 9.5152,-0.4473 9.4275,-0.6318 4.0242,-9.1505 3.9273,-8.8783 -9.146,0.2719 -4.0242,9.1505 z"
         fill="#36b37e"
         id="path967" />
      <path
         d="m 66.226,90.7334 4.4026,-9.7827 -9.8844,0.6226 -4.4026,9.7827 z"
         fill="#36b37e"
         id="path969" />
      <path
         d="m 41.4918,102.481 10.1659,-0.983 4.6841,-10.1422 -10.1659,0.9826 z"
         fill="#36b37e"
         id="path971" />
    </g>
  </g>
  <g
     clip-path="url(#clip0_34_2614)"
     id="g1477"
     transform="matrix(0.61505012,0,0,0.61505012,814.35026,49.074042)">
    <path
       d="m 100.284,489.708 181.659,-29.23 100.55,-16.179 -56.223,-58.792 -264.3324,42.532 8.3277,27.538 z"
       fill="#172b4d"
       id="path1428" />
    <path
       d="M 263.619,8.95481 317.682,41.5089 167.467,465.605 100.284,489.708 70.2652,455.577 61.9375,428.04 160.525,185.972 l 23.937,-22.186 -9.656,-22.97 44.357,-113.249 z"
       fill="#ffffff"
       id="path1430" />
    <mask
       id="mask1621"
       maskUnits="userSpaceOnUse"
       x="61"
       y="8"
       width="257"
       height="482">
      <path
         d="M 263.619,8.95481 317.682,41.5089 167.467,465.605 100.284,489.708 70.2652,455.577 61.9375,428.04 160.525,185.972 l 23.937,-22.186 -9.656,-22.97 44.357,-113.249 z"
         fill="#ffffff"
         id="path1619" />
    </mask>
    <g
       mask="url(#mask0_34_2614)"
       id="g1457">
      <path
         d="m 152.766,228.931 7.491,-21.832 21.039,-3.156 7.151,-21.089 -20.816,3.12 7.223,-20.643 -20.852,2.897 -7.634,20.938 -7.785,21.421 -21.934,3.3 -8.348,22.199 -22.7549,3.89 -8.8745,23.201 23.1661,-4.186 22.7553,-3.891 8.053,-22.61 z"
         fill="#c5e9da"
         id="path1435" />
      <path
         d="m 174.181,225.256 21.004,-3.379 6.891,-21.277 -20.78,3.343 z"
         fill="#36b37e"
         id="path1437" />
      <path
         d="m 144.866,251.059 21.861,-3.747 7.454,-22.055 -21.414,3.675 z"
         fill="#36b37e"
         id="path1439" />
      <path
         d="m 159.121,269.849 21.826,-3.97 7.194,-22.242 -21.414,3.675 z"
         fill="#172b4d"
         id="path1441" />
      <path
         d="m 136.885,274.115 7.98,-23.056 -22.272,4.042 -8.428,23.128 -8.543,23.835 23.094,-4.633 22.684,-4.337 7.721,-23.244 z"
         fill="#172b4d"
         id="path1443" />
      <path
         d="m 195.259,162.506 -6.812,20.348 20.369,-3.049 -6.74,20.795 20.37,-3.049 6.552,-20.535 6.178,-20.016 -19.735,2.717 6.437,-19.829 6.321,-19.122 -19.583,2.234 -6.509,19.382 -20.182,2.789 -7.071,20.16 z"
         fill="#36b37e"
         id="path1445" />
      <path
         d="m 188.586,125.307 -20.218,2.565 -7.107,19.937 20.664,-2.637 z"
         fill="#172b4d"
         id="path1447" />
      <path
         d="m 195.184,221.877 -7.043,21.76 20.968,-3.603 20.485,-3.755 6.445,-21.205 6.293,-20.722 -19.887,3.199 -6.48,20.982 z"
         fill="#36b37e"
         id="path1449" />
      <path
         d="m 195.202,284.671 7.123,-22.69 -21.378,3.899 -7.534,22.984 z"
         fill="#36b37e"
         id="path1451" />
      <path
         d="m 143.303,316.857 22.424,-4.525 7.686,-23.468 -22.013,4.23 z"
         fill="#36b37e"
         id="path1453" />
      <path
         d="m 161.261,147.809 -20.888,2.673 -7.706,20.492 21.335,-2.746 z"
         fill="#36b37e"
         id="path1455" />
    </g>
    <path
       d="M 263.619,8.95481 100.284,489.708 167.467,465.605 317.682,41.5089 Z"
       fill="#c5e9da"
       id="path1459" />
    <path
       d="M 263.619,8.95481 317.682,41.5089 167.467,465.605 100.284,489.708 70.2652,455.577 61.9375,428.04 160.525,185.972 184.462,163.785 174.806,140.816 219.163,27.567 Z"
       stroke="#36b37e"
       stroke-width="1.57158"
       stroke-miterlimit="10"
       stroke-linejoin="round"
       id="path1461" />
    <path
       d="m 205.393,179.899 20.931,16.112 -27.931,4.495 z"
       fill="#ffffff"
       id="path1463" />
    <path
       d="m 263.161,195.585 -36.837,0.427 -20.931,-16.113 -20.931,-16.113"
       stroke="#36b37e"
       stroke-width="1.57158"
       stroke-miterlimit="10"
       stroke-linejoin="round"
       id="path1465" />
    <path
       d="m 226.324,196.011 -27.931,4.494 -28.113,83.134"
       stroke="#36b37e"
       stroke-width="1.57158"
       stroke-miterlimit="10"
       stroke-linejoin="round"
       id="path1467" />
    <path
       d="M 298.59,95.2303 252.116,42.891 208.442,54.9604"
       stroke="#36b37e"
       stroke-width="1.57158"
       stroke-miterlimit="10"
       stroke-linejoin="round"
       id="path1469" />
    <path
       d="m 221.373,51.2758 -9.194,-5.8546"
       stroke="#36b37e"
       stroke-width="1.57158"
       stroke-miterlimit="10"
       stroke-linejoin="round"
       id="path1471" />
    <path
       d="m 163.28,304.246 -36.26,-35.877 -65.0825,159.67 8.3277,27.538 30.0188,34.131 z"
       fill="#ffffff"
       stroke="#36b37e"
       stroke-width="1.57158"
       stroke-miterlimit="10"
       stroke-linejoin="round"
       id="path1473" />
    <path
       d="m 218.344,324.492 -59.263,-7.882 -4.756,-21.007 11.133,5.084 z"
       fill="#172b4d"
       id="path1475" />
  </g>
</svg>
